<?xml version="1.0" encoding="utf-8"?>
<!-- Generator: Adobe Illustrator 20.1.0, SVG Export Plug-In . SVG Version: 6.00 Build 0)  -->
<svg version="1.1" id="Layer_1" xmlns="http://www.w3.org/2000/svg" xmlns:xlink="http://www.w3.org/1999/xlink" x="0px" y="0px"
	 viewBox="0 0 150 150" style="enable-background:new 0 0 150 150;" xml:space="preserve">
<style type="text/css">
	.st0{fill:#FF9900;}
	.st1{stroke:#000000;}
	.st2{fill:#FFFFFF;}
</style>
<g>
	<g>
		<polygon class="st0" points="27.9,97.7 20.4,95 20.4,84 27.9,86.6 		"/>
		<polygon class="st0" points="29.2,97.7 36.7,95 36.7,84 29.2,86.6 		"/>
		<polygon class="st0" points="21.2,83.2 28.7,81.1 35.7,83.3 28.7,85.7 		"/>
	</g>
	<g>
		<polygon class="st0" points="19,82.4 11.5,79.7 11.5,68.7 19,71.3 		"/>
		<polygon class="st0" points="20.3,82.4 27.8,79.7 27.8,68.7 20.3,71.3 		"/>
		<polygon class="st0" points="12.3,67.9 19.8,65.8 26.8,68.1 19.8,70.4 		"/>
	</g>
	<g>
		<polygon class="st0" points="36.4,82.4 28.9,79.7 28.9,68.7 36.4,71.3 		"/>
		<polygon class="st0" points="37.8,82.4 45.2,79.7 45.2,68.7 37.8,71.3 		"/>
		<polygon class="st0" points="29.7,67.9 37.2,65.8 44.3,68.1 37.2,70.4 		"/>
	</g>
	<g>
		<polygon class="st0" points="45.3,67.1 37.8,64.4 37.8,53.5 45.3,56 		"/>
		<polygon class="st0" points="46.6,67.1 54.1,64.4 54.1,53.5 46.6,56 		"/>
		<polygon class="st0" points="38.6,52.6 46.1,50.5 53.1,52.8 46.1,55.2 		"/>
	</g>
	<g>
		<polygon class="st0" points="62.7,67.1 55.2,64.4 55.2,53.5 62.7,56 		"/>
		<polygon class="st0" points="64.1,67.1 71.5,64.4 71.5,53.5 64.1,56 		"/>
		<polygon class="st0" points="56,52.6 63.6,50.5 70.6,52.8 63.6,55.2 		"/>
	</g>
	<g>
		<path class="st1" d="M58.9,90.5l-2.5,8.7h-1.1l-2-6.5l-1.8,6.5h-1.1l-2.6-8.7h1.4l1.9,6.5l1.8-6.5h1l2,6.5l2-6.5H58.9z"/>
		<path class="st1" d="M65.8,96.6l1.3,0.3c-0.2,0.7-0.7,1.4-1.3,1.8c-0.7,0.5-1.4,0.7-2.4,0.7c-1.2,0-2.1-0.4-2.9-1.3
			c-0.7-0.8-1.1-1.9-1.1-3.3c0-1.4,0.4-2.5,1.1-3.4c0.8-0.9,1.7-1.3,2.9-1.3c1.1,0,2.1,0.4,2.7,1.2c0.7,0.8,1,2,1.1,3.5h-6.3
			c0,1.3,0.3,2.2,0.8,2.7c0.6,0.5,1.1,0.7,1.7,0.7C64.6,98.4,65.4,97.8,65.8,96.6z M65.8,94c0-0.5-0.1-0.9-0.2-1.3
			c-0.1-0.4-0.4-0.7-0.8-1c-0.4-0.3-0.8-0.4-1.3-0.4c-0.7,0-1.2,0.2-1.7,0.7C61.3,92.5,61,93.2,61,94H65.8z"/>
		<path class="st1" d="M69.7,99.2H69V87.5h1.4V92c0.6-1.1,1.5-1.7,2.6-1.7c1,0,1.8,0.4,2.5,1.2c0.7,0.8,1,1.9,1,3.4
			c0,1.3-0.3,2.4-1,3.3c-0.7,0.9-1.5,1.3-2.6,1.3c-1.2,0-2.1-0.6-2.7-1.7L69.7,99.2z M70.4,95.8c0.1,0.9,0.3,1.5,0.8,1.9
			c0.5,0.4,1,0.6,1.5,0.6c0.7,0,1.2-0.3,1.7-0.9c0.4-0.6,0.6-1.4,0.6-2.5c0-1.1-0.2-2-0.6-2.6c-0.4-0.6-1-1-1.7-1
			c-0.6,0-1.1,0.2-1.5,0.7c-0.5,0.5-0.7,1-0.8,1.8V95.8z"/>
		<path class="st1" d="M79.9,97l1.3-0.3c0.3,1.1,1.2,1.6,2.7,1.6c0.6,0,1-0.1,1.4-0.4c0.4-0.3,0.6-0.6,0.6-1.1
			c0-0.7-0.5-1.1-1.5-1.3l-1.8-0.3c-0.7-0.1-1.3-0.4-1.7-0.8c-0.4-0.4-0.6-0.9-0.6-1.6c0-0.7,0.3-1.3,0.9-1.8
			c0.6-0.5,1.4-0.7,2.3-0.7c1.9,0,3.1,0.7,3.5,2.2l-1.2,0.3c-0.4-0.9-1.1-1.4-2.2-1.4c-0.6,0-1,0.1-1.4,0.3
			c-0.4,0.2-0.5,0.5-0.5,0.9c0,0.6,0.5,1,1.4,1.2l1.7,0.3c1.8,0.3,2.7,1.2,2.7,2.6c0,0.8-0.3,1.4-1,1.9c-0.7,0.5-1.5,0.7-2.6,0.7
			C81.7,99.5,80.4,98.6,79.9,97z"/>
		<path class="st1" d="M94.6,96.6l1.3,0.3c-0.2,0.7-0.7,1.4-1.3,1.8c-0.7,0.5-1.4,0.7-2.4,0.7c-1.2,0-2.1-0.4-2.9-1.3
			c-0.7-0.8-1.1-1.9-1.1-3.3c0-1.4,0.4-2.5,1.1-3.4c0.8-0.9,1.7-1.3,2.9-1.3c1.1,0,2.1,0.4,2.7,1.2c0.7,0.8,1,2,1.1,3.5h-6.3
			c0,1.3,0.3,2.2,0.8,2.7s1.1,0.7,1.7,0.7C93.4,98.4,94.2,97.8,94.6,96.6z M94.5,94c0-0.5-0.1-0.9-0.2-1.3c-0.1-0.4-0.4-0.7-0.8-1
			c-0.4-0.3-0.8-0.4-1.3-0.4c-0.7,0-1.2,0.2-1.7,0.7c-0.5,0.5-0.7,1.1-0.8,1.9H94.5z"/>
		<path class="st1" d="M98.8,99.2h-1.4v-8.7h1.2v2c0.4-1,0.8-1.6,1.3-1.8c0.4-0.3,0.9-0.4,1.3-0.4c0.1,0,0.3,0,0.5,0v1.3h-0.3
			c-0.7,0-1.4,0.3-1.9,0.8c-0.5,0.6-0.8,1.3-0.8,2.2L98.8,99.2L98.8,99.2z"/>
		<path class="st1" d="M110.2,90.5l-3,8.7h-1.4l-3.1-8.7h1.5l2.4,7.1l2.4-7.1H110.2z"/>
		<path class="st1" d="M112.7,87.5V89h-1.5v-1.5H112.7z M112.7,90.5v8.7h-1.4v-8.7H112.7z"/>
		<path class="st1" d="M119.8,96.2l1.2,0.2c-0.2,1-0.6,1.7-1.1,2.3c-0.6,0.5-1.3,0.8-2.2,0.8c-1.2,0-2.1-0.4-2.7-1.3
			c-0.6-0.9-0.9-2-0.9-3.2c0-1.3,0.3-2.4,1-3.3c0.7-0.9,1.6-1.3,2.7-1.3c0.9,0,1.7,0.3,2.3,0.9c0.6,0.6,0.9,1.3,1.1,2.2l-1.2,0.2
			c-0.2-1.4-0.9-2.2-2.1-2.2c-0.7,0-1.3,0.3-1.7,1c-0.4,0.6-0.6,1.5-0.6,2.5c0,1.1,0.2,2,0.6,2.6c0.4,0.6,1,0.9,1.7,0.9
			C118.8,98.4,119.5,97.6,119.8,96.2z"/>
		<path class="st1" d="M128.7,96.6l1.3,0.3c-0.2,0.7-0.7,1.4-1.3,1.8c-0.7,0.5-1.4,0.7-2.4,0.7c-1.2,0-2.1-0.4-2.9-1.3
			c-0.7-0.8-1.1-1.9-1.1-3.3c0-1.4,0.4-2.5,1.1-3.4c0.8-0.9,1.7-1.3,2.9-1.3c1.1,0,2.1,0.4,2.7,1.2c0.7,0.8,1,2,1.1,3.5h-6.3
			c0,1.3,0.3,2.2,0.8,2.7s1.1,0.7,1.7,0.7C127.4,98.4,128.2,97.8,128.7,96.6z M128.6,94c0-0.5-0.1-0.9-0.2-1.3
			c-0.1-0.4-0.4-0.7-0.8-1s-0.8-0.4-1.3-0.4c-0.7,0-1.2,0.2-1.7,0.7c-0.5,0.5-0.7,1.1-0.8,1.9H128.6z"/>
		<path class="st1" d="M130.8,97l1.3-0.3c0.3,1.1,1.2,1.6,2.7,1.6c0.6,0,1-0.1,1.4-0.4c0.4-0.3,0.6-0.6,0.6-1.1
			c0-0.7-0.5-1.1-1.5-1.3l-1.8-0.3c-0.7-0.1-1.3-0.4-1.7-0.8c-0.4-0.4-0.6-0.9-0.6-1.6c0-0.7,0.3-1.3,0.9-1.8
			c0.6-0.5,1.4-0.7,2.3-0.7c1.9,0,3.1,0.7,3.5,2.2l-1.2,0.3c-0.4-0.9-1.1-1.4-2.2-1.4c-0.6,0-1,0.1-1.4,0.3
			c-0.4,0.2-0.5,0.5-0.5,0.9c0,0.6,0.5,1,1.4,1.2l1.7,0.3c1.8,0.3,2.7,1.2,2.7,2.6c0,0.8-0.3,1.4-1,1.9c-0.7,0.5-1.5,0.7-2.6,0.7
			C132.6,99.5,131.3,98.6,130.8,97z"/>
	</g>
	<g>
		<g>
			<path d="M100.2,71.9v-2.1c0-0.3,0.2-0.5,0.5-0.5h9.4c0.3,0,0.5,0.2,0.5,0.5v1.8c0,0.3-0.3,0.7-0.7,1.3l-4.9,6.9
				c1.8,0,3.7,0.2,5.4,1.1c0.4,0.2,0.5,0.5,0.5,0.8v2.2c0,0.3-0.3,0.7-0.7,0.5c-2.9-1.5-6.7-1.7-9.9,0c-0.3,0.2-0.7-0.2-0.7-0.5
				v-2.1c0-0.3,0-0.9,0.3-1.4l5.6-8.1h-4.9C100.5,72.4,100.2,72.2,100.2,71.9z"/>
			<path d="M66.7,85h-2.9c-0.3,0-0.5-0.2-0.5-0.5V69.8c0-0.3,0.2-0.5,0.6-0.5h2.7c0.3,0,0.5,0.2,0.5,0.5v1.9h0.1
				c0.7-1.8,2-2.7,3.8-2.7c1.8,0,2.9,0.9,3.7,2.7c0.7-1.8,2.3-2.7,3.9-2.7c1.2,0,2.5,0.5,3.3,1.6c0.9,1.2,0.7,3,0.7,4.6v9.2
				c0,0.3-0.2,0.5-0.6,0.5h-2.9c-0.3,0-0.5-0.2-0.5-0.5v-7.8c0-0.6,0.1-2.2-0.1-2.7c-0.2-1-0.9-1.3-1.7-1.3c-0.7,0-1.4,0.5-1.7,1.2
				c-0.3,0.7-0.3,2-0.3,2.8v7.8c0,0.3-0.2,0.5-0.6,0.5h-2.8c-0.3,0-0.5-0.2-0.5-0.5v-7.8c0-1.6,0.3-4-1.8-4c-2.1,0-2,2.3-2,4v7.8
				C67.2,84.7,67,85,66.7,85z"/>
			<path d="M117.6,69c4.2,0,6.5,3.6,6.5,8.3c0,4.5-2.5,8-6.5,8c-4.1,0-6.4-3.6-6.4-8.2C111.2,72.6,113.5,69,117.6,69z M117.6,72.4
				c-2.1,0-2.2,2.9-2.2,4.7c0,1.8,0,5.2,2.2,5.2c2.2,0,2.3-2.7,2.3-4.6c0-1.2-0.1-2.7-0.4-3.9C119.1,72.8,118.5,72.4,117.6,72.4z"/>
			<path d="M130.1,85h-2.8c-0.3,0-0.5-0.2-0.5-0.5l0-14.7c0-0.3,0.3-0.5,0.5-0.5h2.6c0.3,0,0.5,0.2,0.5,0.4V72h0.1
				c0.8-2,1.9-3,3.9-3c1.3,0,2.5,0.5,3.3,1.7c0.7,1.2,0.7,3.1,0.7,4.6v9.2c0,0.3-0.3,0.5-0.5,0.5h-2.9c-0.3,0-0.5-0.2-0.5-0.5v-7.9
				c0-1.6,0.2-3.9-1.8-3.9c-0.7,0-1.3,0.5-1.7,1.2c-0.4,0.9-0.5,1.8-0.5,2.8v7.9C130.7,84.7,130.4,85,130.1,85z"/>
			<path d="M96,84.9c-0.2,0.2-0.5,0.2-0.7,0.1c-0.9-0.8-1.1-1.2-1.6-1.9c-1.6,1.6-2.7,2.1-4.7,2.1c-2.4,0-4.3-1.5-4.3-4.4
				c0-2.3,1.3-3.9,3-4.7c1.5-0.7,3.7-0.8,5.4-1v-0.4c0-0.7,0.1-1.5-0.3-2.1c-0.3-0.5-1-0.7-1.6-0.7c-1.1,0-2.1,0.6-2.3,1.7
				c0,0.3-0.2,0.5-0.5,0.5l-2.8-0.3c-0.2-0.1-0.5-0.2-0.4-0.6c0.6-3.4,3.7-4.4,6.4-4.4c1.4,0,3.2,0.4,4.3,1.4c1.4,1.3,1.3,3,1.3,4.9
				v4.4c0,1.3,0.6,1.9,1.1,2.6c0.2,0.3,0.2,0.6,0,0.8C97.6,83.5,96.5,84.4,96,84.9L96,84.9z"/>
			<path class="st2" d="M93.1,78c0,1.1,0,2-0.5,3c-0.5,0.8-1.2,1.3-2,1.3c-1.1,0-1.7-0.8-1.7-2.1c0-2.4,2.2-2.9,4.2-2.9L93.1,78
				L93.1,78z"/>
			<path d="M58.9,84.9c-0.2,0.2-0.5,0.2-0.7,0.1c-0.9-0.8-1.1-1.2-1.6-1.9c-1.6,1.6-2.7,2.1-4.7,2.1c-2.4,0-4.3-1.5-4.3-4.4
				c0-2.3,1.3-3.9,3-4.7c1.5-0.7,3.7-0.8,5.4-1v-0.4c0-0.7,0.1-1.5-0.3-2.1c-0.3-0.5-1-0.7-1.6-0.7c-1.1,0-2.1,0.6-2.3,1.7
				c0,0.3-0.2,0.5-0.5,0.5l-2.8-0.3c-0.2-0.1-0.5-0.2-0.4-0.6c0.6-3.4,3.7-4.4,6.4-4.4c1.4,0,3.2,0.4,4.3,1.4c1.4,1.3,1.3,3,1.3,4.9
				v4.4c0,1.3,0.6,1.9,1.1,2.6c0.2,0.3,0.2,0.6,0,0.8C60.5,83.5,59.5,84.4,58.9,84.9L58.9,84.9z"/>
			<path class="st2" d="M56,78c0,1.1,0,2-0.5,3c-0.5,0.8-1.2,1.3-2,1.3c-1.1,0-1.7-0.8-1.7-2.1c0-2.4,2.2-2.9,4.2-2.9L56,78L56,78z"
				/>
		</g>
	</g>
</g>
</svg>
