<?xml version="1.0" encoding="utf-8"?>
<!-- Generator: Adobe Illustrator 20.1.0, SVG Export Plug-In . SVG Version: 6.00 Build 0)  -->
<svg version="1.1" id="Layer_1" xmlns="http://www.w3.org/2000/svg" xmlns:xlink="http://www.w3.org/1999/xlink" x="0px" y="0px"
	 viewBox="0 0 150 150" style="enable-background:new 0 0 150 150;" xml:space="preserve">
<style type="text/css">
	.st0{fill:#0075C9;}
</style>
<g>
	<path class="st0" d="M77.1,61c-9.3,0-17.4,5.2-21.4,12.9C51.6,66.2,43.6,61,34.2,61c-5.4,0-10.5,1.8-14.6,4.8V45.3
		c0-2.6-2.2-4.8-4.8-4.8s-4.8,2.2-4.9,4.8v40.3l0,0c0.2,13.2,11,23.8,24.3,23.8c9.3,0,17.4-5.2,21.4-12.9
		c4.1,7.7,12.1,12.9,21.4,12.9c13.4,0,24.3-10.9,24.3-24.3C101.3,71.9,90.4,61,77.1,61 M34.1,99.8c-8,0-14.6-6.5-14.6-14.6
		S26,70.6,34.1,70.6s14.6,6.5,14.6,14.6S42.3,99.8,34.1,99.8 M77.1,99.8c-8,0-14.6-6.5-14.6-14.6S69,70.6,77.1,70.6
		s14.6,6.5,14.6,14.6C91.5,93.3,85,99.8,77.1,99.8"/>
	<path class="st0" d="M139,101.3l-13.2-16.1L139,69c1.7-2.1,1.1-5.1-1.1-6.8c-2.3-1.6-5.6-1.1-7.3,0.9l0,0l-11.3,13.9l-11.3-13.9
		l0,0c-1.8-2.1-5.1-2.5-7.3-0.9c-2.3,1.6-2.7,4.6-1,6.8l0,0l13.1,16.2l-13.4,16.1l0,0c-1.7,2.1-1.1,5.1,1,6.8
		c2.3,1.6,5.6,1.1,7.3-0.9l11.3-13.9l11.3,13.9c1.8,2.1,5.1,2.5,7.3,0.9C140.2,106.4,140.6,103.4,139,101.3"/>
</g>
</svg>
