<?xml version="1.0" encoding="utf-8"?>
<!-- Generator: Adobe Illustrator 20.1.0, SVG Export Plug-In . SVG Version: 6.00 Build 0)  -->
<svg version="1.1" id="Layer_1" xmlns="http://www.w3.org/2000/svg" xmlns:xlink="http://www.w3.org/1999/xlink" x="0px" y="0px"
	 viewBox="0 0 150 150" style="enable-background:new 0 0 150 150;" xml:space="preserve">
<style type="text/css">
	.st0{fill:#E41D3A;}
	.st1{fill:#969CA1;}
</style>
<g>
	<path class="st0" d="M65.7,66c2-2.5,4.6-4,7.7-4.5c3.4-0.5,6.7,0.1,9.5,2.2c2.6,1.9,4.2,4.5,4.9,7.6c0.2,0.9,0.3,1.8,0.3,2.8
		c0,8.5,0,17,0,25.5c0,0.1,0,0.2,0,0.3c0,0.9,0.1,0.9-0.9,0.9c-1.4,0-2.8,0-4.2,0c-0.3-0.3-0.2-0.7-0.2-1.1c0-4.9,0-9.7,0-14.6
		c0-0.5,0-0.9,0-1.4c0-2.9,0-5.8,0-8.7c0.3-2.7-0.6-5-2.7-6.7c-1.5-1.2-3.2-1.8-5-1.6c-3.3,0.3-5.7,2.6-6.5,5.3c-0.3,1-0.2,2-0.2,3
		c-0.4,0.5-0.2,1-0.4,1.6c-0.5,1.7-1.2,3.2-2.2,4.6c-1.3,1.5-2.8,2.8-4.6,3.6c-5.3,2.5-11.8,1-15.4-3.8c-1.6-2.2-2.5-4.5-2.5-7.3
		c1.7,0,3.4,0,5.1,0c0.1,0.4,0.2,0.7,0.2,1.1c0.3,1.9,1.3,3.4,2.8,4.5c1.6,1.2,3.4,1.5,5.3,1.3c1.8-0.2,3.3-1,4.5-2.3
		c1.4-1.5,2-3.3,1.8-5.3c0.4-0.5,0.1-1.2,0.3-1.8C63.7,69.2,64.5,67.5,65.7,66z"/>
	<path class="st0" d="M24.9,75.3c-2.8,0-5.5,0-8.3,0c-0.8,0-1,0.2-0.7,1c0.8,2,2.1,3.4,4.3,4c2.5,0.6,4.8,0.2,6.8-1.4
		c0.6-0.5,1.1-0.5,1.7-0.2c1.1,0.6,2.3,1.1,3.4,1.6c0.4,0.2,0.4,0.4,0.2,0.7c-0.5,0.8-1.1,1.4-1.8,2c-1.9,1.6-4.2,2.5-6.7,2.6
		c-2.1,0.1-4.1,0.1-6.1-0.6c-3.5-1.3-6-3.7-7.1-7.3c-1.5-4.9-0.6-9.4,3.1-13.1c1.9-1.9,4.3-2.9,7-3.1c2-0.1,3.9,0,5.7,0.6
		c3.8,1.4,6.2,4.1,7.3,8c0.4,1.3,0.6,2.7,0.5,4.1c0,0.9-0.1,1-1,1C30.5,75.3,27.7,75.3,24.9,75.3z M16.2,70.6c4,0,8.1,0,12.1,0
		c-0.8-2.7-3.5-4.6-7.2-4.2C18.9,66.7,16.6,68.5,16.2,70.6z"/>
	<path class="st0" d="M134.9,85.8c0-0.9,0-1.7,0-2.5c-0.4-0.1-0.6,0.2-0.8,0.3c-2.2,1.4-4.6,2.2-7.2,2.1c-3.8-0.2-7-1.7-9.4-4.8
		c-1.9-2.5-2.7-5.3-2.5-8.4c0.2-2.5,1.1-4.7,2.7-6.7c2-2.5,4.6-4,7.7-4.4c3.8-0.6,7.4,0.4,10.4,3c2.3,2,3.5,4.5,4.1,7.4
		c0.1,0.4,0.1,0.8,0.1,1.3c0,4,0,7.9,0,11.9c0,0.9,0.1,0.9-0.9,0.9C137.7,85.8,136.4,85.8,134.9,85.8z M127.3,80.8
		c3.8,0.3,7.3-3.3,7.4-7.1c0-4-3.3-7.2-7.2-7.2c-4.2,0-7.4,3.5-7.5,7.1C120,77.3,123.4,81,127.3,80.8z"/>
	<path class="st0" d="M114.1,61.3c0.2,0.5,0.1,0.9,0.1,1.3c0,3.4,0,6.7,0,10.1c0,3.3-0.9,6.1-3,8.7c-1.8,2.2-4.1,3.6-6.9,4.2
		c-5.6,1.2-11-1.3-13.8-6.4c-0.9-1.6-1.4-3.3-1.4-5.2c0-4,0-7.9,0-11.9c0-0.2,0-0.3,0-0.5c0-0.3,0.1-0.5,0.4-0.5c1.4,0,2.8,0,4.2,0
		c0.3,0,0.5,0.1,0.5,0.4c0,0.3,0,0.6,0,0.9c0,3.6,0,7.1,0,10.7c0,3.6,2.4,6.4,5.2,7.1c2.5,0.6,4.9,0.3,6.9-1.5
		c1.7-1.5,2.5-3.3,2.5-5.6c0-3.7,0-7.3,0-11c0-0.9,0-0.9,0.9-0.9C111.2,61.3,112.6,61.3,114.1,61.3z"/>
	<path class="st0" d="M36.3,67.6c0-5.6,0-11.1,0-16.7c0-0.2,0-0.4,0-0.6c0-0.9,0-0.9,0.9-0.9c1.2,0,2.5,0,3.7,0
		c0.4,0,0.5,0.1,0.5,0.5c0,0.3,0,0.6,0,0.9c0,11.2,0,22.4,0,33.7c0,0.3,0,0.6,0,0.9c0,0.4-0.2,0.5-0.5,0.5c-1.4,0-2.7,0-4.1,0
		c-0.4,0-0.5-0.1-0.5-0.5c0-0.3,0-0.6,0-0.9C36.3,78.8,36.3,73.2,36.3,67.6z"/>
	<path class="st1" d="M48.3,73.6c-1.7,0-3.4,0-5.1,0c-0.1-3.2,1.2-5.9,3.3-8.3c1.9-2.2,4.4-3.5,7.2-3.9c3.3-0.5,6.4,0.2,9.2,2.1
		c1,0.7,1.7,1.7,2.7,2.4c-1.2,1.5-1.9,3.2-2.5,5.1c-0.2,0.6,0.1,1.3-0.3,1.8c-0.1-1.6-0.8-2.9-1.9-4C59.2,67,57,66,54.2,66.7
		c-2.1,0.5-3.6,1.6-4.8,3.4C48.7,71.1,48.6,72.4,48.3,73.6z"/>
	<path class="st1" d="M82.8,74.8c0,2.9,0,5.8,0,8.7c-2.6,1.8-5.6,2.6-8.7,2.2c-2.7-0.3-5.2-1.4-7.1-3.4C66.5,82,66,81.6,65.7,81
		c0.9-1.4,1.7-3,2.2-4.6c0.2-0.5,0-1.1,0.4-1.6c0.1,0.1,0.2,0.2,0.2,0.3c0.3,1.5,1.1,2.6,2.2,3.6c2,1.9,4.4,2.2,6.9,1.6
		c2.1-0.5,3.4-1.9,4.5-3.6C82.3,76.1,82.5,75.4,82.8,74.8z"/>
</g>
</svg>
