<?xml version="1.0" encoding="utf-8"?>
<!-- Generator: Adobe Illustrator 20.1.0, SVG Export Plug-In . SVG Version: 6.00 Build 0)  -->
<svg version="1.1" id="Layer_1" xmlns="http://www.w3.org/2000/svg" xmlns:xlink="http://www.w3.org/1999/xlink" x="0px" y="0px"
	 viewBox="0 0 150 150" style="enable-background:new 0 0 150 150;" xml:space="preserve">
<style type="text/css">
	.st0{fill:#FF7000;}
</style>
<g>
	<path class="st0" d="M46.9,68.4c0.9,1.2,1.3,2.9,0.9,5.5l-1.7,11.9h-7.3l1.5-10.3c0.2-1.2,0.1-2-0.3-2.5c-0.4-0.5-0.9-0.7-1.8-0.7
		c-0.8,0-1.7,0.3-2.3,0.9c-0.6,0.6-1.1,1.8-1.4,3.6l-1.3,8.9h-7.3L28.7,67h6.7L35,70.1c1.2-1.3,2.3-2.1,3.5-2.6
		c1.2-0.5,2.4-0.8,3.9-0.8C44.4,66.6,45.9,67.1,46.9,68.4z M63.3,67h-3.5c0.1-0.8,0.2-1.4,0.3-1.7c0.2-0.4,0.4-0.8,0.7-1.1
		c0.3-0.2,0.8-0.3,1.5-0.3c0.5,0,1.3,0.1,2.1,0.2l1.5-4.3c-2.4-0.3-4.2-0.4-5.5-0.4c-1.6,0-2.8,0.2-3.7,0.5
		c-0.8,0.3-1.6,0.8-2.1,1.4s-0.9,1.4-1.3,2.2c-0.3,0.9-0.5,1.8-0.6,2.5l-0.1,0.8H50l-0.7,5.3h2.6L50,85.6h7.3l1.9-13.5h3.5L63.3,67z
		 M82.9,69.8c1.3,1.8,1.8,3.9,1.4,6.4c-0.4,2.8-1.7,5.3-3.9,7S75.3,86,72,86c-3.1,0-5.4-0.7-7-2.3c-2-1.9-2.8-4.3-2.4-7.5
		c0.4-2.8,1.7-5.2,3.9-7c2.2-1.9,4.9-2.7,8.3-2.7C78.6,66.6,81.2,67.6,82.9,69.8z M76.5,72.7c-0.5-0.8-1.4-1.2-2.3-1.2
		c-1.1,0-2,0.4-2.8,1.2c-0.8,0.8-1.4,2-1.6,3.7c-0.2,1.7-0.1,2.9,0.5,3.7c0.5,0.8,1.4,1.2,2.4,1.2s2-0.4,2.7-1.2
		c0.7-0.7,1.3-2,1.6-3.8C77.2,74.7,77,73.4,76.5,72.7z M105.9,69c1.3,1.7,1.7,4,1.3,7c-0.3,2-0.9,3.9-1.8,5.4
		c-0.9,1.6-2,2.7-3.4,3.5S99.3,86,97.8,86c-1.3,0-2.4-0.3-3.4-0.8c-0.7-0.4-1.5-1.3-2.2-2.4l-0.4,2.8H85l3.7-25.8h7.4l-1.3,8.9
		c0.8-0.7,1.8-1.3,2.7-1.7s2-0.5,3.2-0.5C102.9,66.6,104.7,67.4,105.9,69z M99.5,72.9c-0.5-0.7-1.2-1.1-2-1.1
		c-0.9,0-1.9,0.3-2.5,1.1c-0.7,0.7-1.2,1.8-1.4,3.3c-0.2,1.6-0.1,2.7,0.4,3.5s1.3,1.1,2.2,1.1c0.8,0,1.7-0.3,2.3-1.1
		c0.7-0.7,1.2-1.9,1.4-3.6C100.2,74.7,100.1,73.6,99.5,72.9z M110.6,67l-2.7,18.7h7.3l2.7-18.7C117.8,67,110.6,67,110.6,67z
		 M18.3,66.4L18.3,66.4l0.5-3.6l0,0c0.1-0.7,0.9-0.7,0.9-0.7l0,0h6.8l0.7-4.8h-7.3l-0.6,4.1c-0.1,0.9-0.6,0.7-0.9,0.8h-7.8L10,67
		h7.9c0.3,0,0.7-0.1,0.5,0.8l-2.5,17.8h7.3l2.7-18.7h-6.9C18.6,67,18.2,66.9,18.3,66.4z M139.9,72.8c0.1,0.8,0.1,1.8,0,2.7
		c0,0.3-0.1,0.6-0.1,0.9c-0.4,3.2-1.6,5.5-3.3,7.2c-1.8,1.7-3.8,2.4-6.1,2.4c-1.2,0-2.1-0.2-2.9-0.5c-0.8-0.4-1.6-0.9-2.2-1.7
		l-1.3,8.9h-7.4l3.7-25.8h6.8l-0.4,2.7c2.7-2.8,10.7-4.7,12.7,1.5c0,0.1,0.1,0.2,0.1,0.3s0.1,0.3,0.1,0.4c0,0.1,0,0.2,0.1,0.3
		C139.8,72.4,139.8,72.6,139.9,72.8L139.9,72.8z M132.2,72.9c-0.5-0.7-1.2-1.1-2-1.1c-0.9,0-1.8,0.3-2.4,1.1
		c-0.7,0.7-1.2,1.9-1.5,3.5c-0.2,1.5-0.1,2.5,0.4,3.3c0.5,0.7,1.3,1.1,2.2,1.1c0.8,0,1.6-0.3,2.3-1.1c0.6-0.7,1.2-1.9,1.4-3.5
		C132.9,74.7,132.7,73.6,132.2,72.9z"/>
</g>
</svg>
