<?xml version="1.0" encoding="utf-8"?>
<!-- Generator: Adobe Illustrator 20.1.0, SVG Export Plug-In . SVG Version: 6.00 Build 0)  -->
<svg version="1.1" id="Layer_1" xmlns="http://www.w3.org/2000/svg" xmlns:xlink="http://www.w3.org/1999/xlink" x="0px" y="0px"
	 viewBox="0 0 150 150" style="enable-background:new 0 0 150 150;" xml:space="preserve">
<style type="text/css">
	.st0{fill:#1372B7;}
</style>
<g>
	<path class="st0" d="M126.9,62.2c-0.9,0-1.7,0.1-2.5,0.2c-3.1-8.1-9.3-14.6-17.1-18.3c0.1-0.5,0.1-1,0.1-1.6
		c0-6.8-5.3-12.4-12.3-12.4c-2.9,0-5.1,1-7.6,2.7v8.4v5.9v5.1c2.5,1.6,4.6,2.7,7.6,2.7c4.2,0,7.8-2.1,10.2-5.3
		c6.3,3.1,11.3,8.7,13.9,15.4c-2.7,2.2-4.6,5.7-4.6,9.5c0,4,1.9,7.4,4.6,9.7c-2.5,6.8-7.6,12.4-14,15.6c-2.2-3.2-5.8-5.3-10-5.3
		c-2.9,0-5.1,1-7.6,2.7v5v5.9v8.4c2.5,1.6,4.6,2.7,7.6,2.7c6.8,0,12.3-5.6,12.3-12.4c0-0.5-0.1-1-0.1-1.6c7.9-3.7,14-10.4,17.2-18.6
		c0.7,0.1,1.6,0.2,2.4,0.2c6.8,0,12.4-5.6,12.4-12.4C139.1,67.8,133.7,62.2,126.9,62.2z"/>
	<path class="st0" d="M9.2,26.9l0.1,96.3l72,13V13.8L9.2,26.9z M49.3,99c-5.8,4.2-13.5,2.5-19.7-0.1c-0.1-3.6-0.1-7.2-0.2-10.8
		c4,3,9.8,7.2,14.5,3.2c3.6-6.1-3.5-10-7.7-13c-8.9-5.3-9.3-20.1-0.6-25.9c5.1-3.2,11.3-2.2,16.7-1.4c0.1,3.3,0.1,6.8,0.2,10.2
		c-4.6-1.5-10.5-4.5-14.4,0.2c-2.6,6.9,5.7,9.5,9.8,13.3C56,80,56.7,93.2,49.3,99z"/>
</g>
</svg>
